PathFileType	4	(X/Y/Z)	Patient4_TMGait_0pt3_01_right_29.trc.trc
DataRate	CameraRate	NumFrames	NumMarkers	Units	OrigDataRate	OrigDataStartFrame	OrigNumFrames
51.660516605166	51.660516605166	4	33	mm	51.660516605166	124	       141
Frame#	Time	Sacral			L.Shoulder			Chest			R.Shoulder			Neck			R.ASIS			L.ASIS			R.Thigh.Superior			R.Thigh.Lateral			R.Thigh.Inferior			R.Patella			L.Thigh.Superior			L.Thigh.Lateral			L.Thigh.Inferior			L.Patella			L.Shank.Superior			L.Shank.Lateral			L.Shank.Inferior			R.Shank.Superior			R.Shank.Lateral			R.Shank.Inferior			R.Heel			R.Midfoot.Superior			R.Midfoot.Lateral			R.Toe			L.Heel			L.Midfoot.Lateral			L.Midfoot.Superior			L.Toe			L.Elbow			L.Wrist			R.Elbow			R.Wrist			
		X1	Y1	Z1	X2	Y2	Z2	X3	Y3	Z3	X4	Y4	Z4	X5	Y5	Z5	X6	Y6	Z6	X7	Y7	Z7	X8	Y8	Z8	X9	Y9	Z9	X10	Y10	Z10	X11	Y11	Z11	X12	Y12	Z12	X13	Y13	Z13	X14	Y14	Z14	X15	Y15	Z15	X16	Y16	Z16	X17	Y17	Z17	X18	Y18	Z18	X19	Y19	Z19	X20	Y20	Z20	X21	Y21	Z21	X22	Y22	Z22	X23	Y23	Z23	X24	Y24	Z24	X25	Y25	Z25	X26	Y26	Z26	X27	Y27	Z27	X28	Y28	Z28	X29	Y29	Z29	X30	Y30	Z30	X31	Y31	Z31	X32	Y32	Z32	X33	Y33	Z33	

124	56.240928571429	696.554485140446	993.450433927087	396.069899489173	921.104630378420	1432.101516474138	281.701571992600	969.885668220983	1357.042151383605	462.193151531729	838.205399313139	1424.497213265770	607.356832139036	860.926909773117	1487.026158800913	433.014127106719	896.280440989401	933.910417261264	564.548540115766	942.681811421921	955.653825621774	293.531234957659	971.964508624642	752.660228696909	547.137172784444	907.960761264828	633.450997864754	607.520890118690	1005.521144960905	593.341057928632	540.834860308587	1027.389410724770	508.252837699788	558.516995629836	943.547289600370	724.748288589455	328.160019674806	840.365492216795	622.636000259767	252.918977954734	890.515835673034	534.642859906568	330.838667635904	873.995535523320	466.989758146752	340.503222960970	838.470913045214	400.325068138143	329.388306963864	738.062209163907	298.169075403834	272.358636343760	761.720268814126	184.381197683559	352.528477290011	1004.131100975032	417.939292497323	568.000307867371	935.003684594778	311.033603185042	628.265266108789	999.185769001818	218.108899664793	582.278103450538	890.109990589830	41.911017849856	550.401546499202	1054.506038591658	105.535078062110	600.034928129785	969.283996034802	36.915289323059	629.953537966776	1174.097391474216	62.094352466502	633.862702128729	612.913966021722	38.620251966628	387.736847592740	690.547415087039	34.830962222186	310.931991271589	774.211404574144	94.964043598562	342.089410053036	902.753585259775	40.096002530046	318.819852220559	1051.455236019754	1133.075024586912	122.629386188094	1307.311288887062	1114.210873497691	161.823204050495	658.597828631640	1119.953308853154	664.014868598432	619.910278076525	860.822449149297	673.883514668440	
125	56.260285714286	697.532849873216	992.643538337249	399.982407084630	921.926273081709	1431.427835700940	287.221505464268	970.180969881836	1356.239328904386	467.812783144090	837.764768377074	1423.553704116990	612.532999831074	861.099941853648	1486.171386954616	438.410197466335	896.546573527447	932.687850301619	568.949291279544	943.951017616350	954.983763004215	298.177726283911	972.171919599339	751.113183435769	551.196408413514	906.588126239709	631.740120053753	609.948178992853	1004.838814828150	591.848344067096	544.144593311871	1025.455572726730	506.299005380195	561.017545178457	943.477244023149	723.570230404203	331.312257805144	839.084303593543	622.537614138715	255.812655871530	888.622249190090	533.738792055995	333.157008291216	871.664518331025	465.932231367056	342.444912230240	835.368687111662	399.792658375814	331.033572853544	733.844276367022	298.855051252487	273.454761290353	756.707353161563	184.306358224064	352.856082943153	1002.027749777323	415.697942246959	569.969996552554	932.069415587144	309.043277932942	629.477875238319	995.374417524003	215.985010923490	582.816386784355	884.395304874281	41.614844733941	549.957952639225	1049.229680004886	103.582670232900	599.874562183523	963.026450506998	36.574047041881	630.106896583496	1168.204066929754	59.147303522721	634.700069148040	607.091831470389	38.932041331816	387.608756359494	684.795386894859	34.912643201011	310.921539115813	768.523842497383	95.002295922410	342.030936493159	897.034387120603	39.915101629346	318.779560330234	1052.840464285627	1133.049272551642	127.627393682112	1309.004333542604	1121.352109332658	166.502313159313	661.157206750696	1117.124277957665	669.031226988847	628.011659474643	857.126038924799	680.015340053184	
126	56.279642857143	698.601119688111	992.222499225090	404.288458367382	922.972237712566	1431.028760947518	292.822383666492	970.763654179030	1355.691302882893	473.491715911896	837.764022930085	1422.945792740087	617.831971664373	861.526370514836	1485.627309805347	443.889318320462	897.024143684649	931.880942984906	573.611084628185	945.191737171181	954.529412341728	303.037713623482	972.730998374821	750.113564683506	555.117526161772	905.951702083602	630.583714365391	612.473508570261	1004.583576924694	590.828297168029	547.211215929932	1024.095078191949	504.682812033834	563.369381971727	943.604171686338	722.621998067134	334.728402328607	838.163518558436	622.528727640447	259.103608253086	887.369987316434	532.969276163828	335.815259646060	870.113619045840	464.867601893613	344.654139873812	832.803883710311	399.324250208136	332.929706916329	729.967570538520	299.836550536578	274.813994470873	751.939895531562	184.386073759596	353.232754308315	1000.260614350027	413.813556644682	571.777836909929	929.355812432518	307.510594208694	630.660222712347	991.413749857797	214.171449858929	583.140229983439	878.084145354435	41.594982632063	549.409906060578	1043.490764982754	101.912371726648	599.501087083584	956.263308966737	36.447838157559	630.064165812893	1161.871849846780	56.389086694659	635.153482490052	601.325479505063	39.573159000856	387.445632789945	679.102465946002	35.158432436169	310.913154153075	762.971457225279	95.102778427474	341.934207284507	891.360440710833	39.679650378427	318.707485427201	1053.947160147684	1133.008842455638	132.711179894075	1310.212095994932	1127.368545409246	171.226779295156	664.472877756697	1114.361433318614	674.627667843506	637.599180615549	853.582057872019	687.100779663622	
127	56.299000000000	699.687487094398	992.191636712375	408.986749608615	924.178094776974	1430.898002032247	298.437419365328	971.603009566238	1355.410616718628	479.161336786053	838.214364497422	1422.703087254765	623.209210164346	862.191714353136	1485.408457896898	449.388188092139	897.691761384540	931.493946833345	578.522755880095	946.328620341184	954.301629539130	308.079082194748	973.516500299026	749.598720276550	558.977251690699	905.871448285649	629.938754159410	615.199154139432	1004.566881461544	590.209104376676	550.131796965780	1023.109331379495	503.403138320078	565.644903914807	943.865859185668	721.950847977914	338.401069215950	837.583797752061	622.631857928698	262.743885856195	886.757562108855	532.362395624174	338.759584965146	869.331372423734	463.825270062340	347.065152256559	830.785021184121	398.945859734371	335.027766012897	726.449195742052	301.140255010375	276.425222434534	747.445786180579	184.662490672267	353.646448366898	998.711901931937	412.302951040737	573.502143449627	926.864429188534	306.387191909159	631.893004012996	987.426042838000	212.692071959177	583.362867517466	871.548668047488	41.746271430291	548.892827103000	1037.578864831232	100.567611146617	599.036562279189	949.391757336397	36.464268085338	629.929306256691	1155.450202211790	53.979280834047	635.300286608496	595.637004425678	40.650082786684	387.254302318655	673.474927371401	35.630273349231	310.902329864802	757.585939280791	95.284037372640	341.791600227362	885.720009153534	39.398028772100	318.608042101845	1054.801780751115	1132.964623116229	137.865142988195	1311.037216649182	1132.251197272651	176.001122699164	668.353888893615	1111.861238994066	680.755196092658	648.326908661994	850.470048949435	695.032925890306	
